<svg width="800" height="800" viewBox="0 0 800 800" fill="none" xmlns="http://www.w3.org/2000/svg">
<path d="M783.723 87.5407L1.16943 72.5395V656.988C1.16943 698.525 176.349 732.194 392.446 732.194C608.544 732.194 783.723 698.525 783.723 656.988" fill="url(#paint0_linear_318_852)"/>
<path d="M556.834 146.679C290.287 173.681 249.19 177.948 161.42 220.018V227.819L175.449 248.621C175.449 253.821 168.435 259.022 161.42 264.222V303.092C172.212 314.026 183.812 324.627 175.449 337.095C166.277 345.229 162.41 352.629 161.42 359.763V368.164C163.669 384.899 177.338 400.567 168.435 420.368C168.435 423.835 165.287 427.902 161.42 431.903V468.906C172.931 488.241 167.266 503.175 161.42 519.243V570.381C163.309 570.914 165.647 571.181 168.435 571.181C164.568 579.715 162.41 588.116 161.42 596.383V618.585C164.478 647.587 177.877 675.923 182.464 706.392C182.464 712.593 169.964 716.926 161.42 720.593V739.462C171.043 759.53 171.492 779.665 167.625 800C185.161 790.666 239.208 765.597 323.83 758.53C428.417 749.796 771.942 777.398 799.999 688.857V78.6065C799.999 78.6065 778.866 124.21 556.834 146.679Z" fill="url(#paint1_linear_318_852)"/>
<path d="M400 150.413C620.914 150.413 800 116.742 800 75.2063C800 33.671 620.914 0 400 0C179.086 0 0 33.671 0 75.2063C0 116.742 179.086 150.413 400 150.413Z" fill="#F1F1F1"/>
<path d="M400 106.409C491.733 106.409 566.098 92.4389 566.098 75.2062C566.098 57.9735 491.733 44.0036 400 44.0036C308.268 44.0036 233.903 57.9735 233.903 75.2062C233.903 92.4389 308.268 106.409 400 106.409Z" fill="url(#paint2_linear_318_852)"/>
<path opacity="0.2" d="M400 20.0017C501.888 20.0017 598.111 27.2689 671.043 40.47C751.439 55.0046 771.673 71.1393 773.022 75.0063C773.022 75.0729 773.021 75.1396 772.932 75.1396C771.762 78.5399 771.852 82.0068 773.022 85.2738V686.324C751.978 736.395 544.155 736.461 431.834 736.528C386.421 736.528 347.212 736.528 320.863 738.728C267.896 743.129 225.899 754.13 196.133 764.73C194.964 754.796 192.356 745.395 188.399 736.261V730.528C192.806 726.261 194.784 720.66 193.525 715.126C191.637 706.792 182.914 700.258 171.763 698.725C41.277 680.99 28.1475 657.188 28.1475 656.988V80.54C28.1475 78.7399 27.7878 76.9397 27.1583 75.2063C27.1583 75.1396 27.0683 75.0729 27.0683 75.0063C28.5971 71.0059 49.0108 54.9379 129.047 40.47C201.888 27.2689 298.111 20.0017 400 20.0017ZM400 0C179.047 0 0 33.6695 0 75.2063C0 77.0064 0.449631 78.8066 1.07913 80.54V656.921C1.07913 682.324 66.6367 704.725 166.817 718.327C164.928 719.127 163.04 719.86 161.331 720.593V739.462C170.953 759.53 171.403 779.665 167.536 800C185.072 790.666 239.119 765.597 323.741 758.53C428.327 749.796 771.852 777.398 799.91 688.857V78.6066C799.91 78.6066 799.64 79.1399 799.011 80.0733C799.55 78.4732 799.91 76.8064 799.91 75.2063C800 33.6695 620.953 0 400 0Z" fill="#424242"/>
<defs>
<linearGradient id="paint0_linear_318_852" x1="1.12447" y1="402.3" x2="783.723" y2="402.3" gradientUnits="userSpaceOnUse">
<stop offset="0.2017" stop-color="#E6E6E6"/>
<stop offset="0.7056" stop-color="#3D3D3D"/>
<stop offset="0.9608" stop-color="#C9C9CA"/>
</linearGradient>
<linearGradient id="paint1_linear_318_852" x1="161.402" y1="439.343" x2="800" y2="439.343" gradientUnits="userSpaceOnUse">
<stop stop-color="white"/>
<stop offset="0.729" stop-color="#B3B3B3"/>
<stop offset="1" stop-color="#CCCCCC"/>
</linearGradient>
<linearGradient id="paint2_linear_318_852" x1="400" y1="50.9109" x2="400" y2="152.226" gradientUnits="userSpaceOnUse">
<stop stop-color="#B3B3B3"/>
<stop offset="1" stop-color="#4D4D4D"/>
</linearGradient>
</defs>
</svg>
