<svg width="800" height="800" viewBox="0 0 800 800" fill="none" xmlns="http://www.w3.org/2000/svg">
<path d="M214.201 214.674L314.883 171.053L595.945 675.774C618.828 716.867 601.549 766.147 557.51 788.965C554.03 790.768 549.545 789.663 547.699 786.496L214.201 214.674Z" fill="#B9C5C6"/>
<path d="M266.814 796.411C264.992 799.726 260.377 800.976 256.733 799.177C212.261 777.227 193.769 728.415 215.512 686.929L483.013 176.506L584.833 218.021L266.814 796.411Z" fill="#DCE2E2"/>
<path d="M793.4 90.9986C781.513 55.5002 755.075 27.8393 718.959 13.1135C701.274 5.9025 682.341 2.24609 662.684 2.24609C602.698 2.24609 546.185 36.1207 518.709 88.5478C516.722 92.3394 514.962 96.1659 513.347 100.01L426.803 265.142C423.135 272.141 422.769 280.141 425.788 287.377C428.806 294.615 434.958 300.5 442.894 303.737L506.325 329.6C510.705 331.385 515.427 332.283 520.159 332.283C524.005 332.283 527.86 331.69 531.538 330.496C539.744 327.835 546.414 322.407 550.083 315.406L574.849 268.151C577.604 269.493 580.404 270.784 583.3 271.964C600.985 279.174 619.918 282.83 639.575 282.83C699.561 282.83 756.072 248.956 783.548 196.53C801.329 162.603 804.829 125.125 793.4 90.9986ZM723.699 172.131C707.228 203.562 673.42 224.678 639.575 224.678C629.541 224.678 619.916 222.828 610.965 219.178C580.565 206.782 564.889 176.294 568.816 143.828C571.19 132.514 575.696 119.642 583.293 105.15C583.426 104.896 583.522 104.633 583.646 104.377C601.384 77.7408 632.018 60.4051 662.688 60.4051C672.722 60.4051 682.347 62.2547 691.297 65.9048C709.934 73.5039 723.739 88.2679 730.173 107.476C737.062 128.056 734.765 151.018 723.699 172.131Z" fill="#FF473E"/>
<path d="M376.592 257.954L285.654 94.6499C283.938 90.8455 282.079 87.0619 279.994 83.318C251.81 32.7041 195.684 0 137.008 0C116.192 0 96.268 4.05879 77.7862 12.065C5.586 43.3473 -21.1812 126.207 18.1158 196.776C46.3002 247.389 102.426 280.094 161.101 280.094C181.914 280.094 201.842 276.036 220.322 268.029C223.185 266.789 225.951 265.439 228.67 264.041L254.691 310.767C260.421 321.058 272.129 327.033 284.305 327.033C289.185 327.033 294.14 326.072 298.813 324.048L361.534 296.875C369.382 293.475 375.377 287.464 378.201 280.166C381.026 272.864 380.446 264.876 376.592 257.954ZM161.103 221.939C127.375 221.939 94.4794 201.996 77.2957 171.137C54.0266 129.352 67.2866 81.4095 106.856 64.2646C116.212 60.2106 126.357 58.1558 137.009 58.1558C167.511 58.1558 197.332 74.4689 215.468 100.415C215.612 100.694 215.724 100.978 215.877 101.257C223.858 115.588 228.707 128.364 231.382 139.626C236.175 172.001 221.319 202.804 191.256 215.83C181.9 219.884 171.753 221.939 161.103 221.939Z" fill="#FF473E"/>
<path d="M415.605 469.233C396.669 475.376 375.673 466.814 368.71 450.112C361.746 433.409 371.452 414.89 390.389 408.748C409.325 402.605 430.32 411.167 437.284 427.869C444.248 444.572 434.541 463.091 415.605 469.233Z" fill="#B9C5C6"/>
</svg>
