<svg width="800" height="800" viewBox="0 0 800 800" fill="none" xmlns="http://www.w3.org/2000/svg">
<path d="M20.8281 579.115C17.0417 570.416 13.3981 561.716 9.82595 553.016C-17.1079 486.829 16.6844 427.114 46.8332 368.651L90.5561 284.02C99.3435 266.969 112.846 252.632 129.421 242.61L255.16 166.609L379.398 41.4717C387.114 33.6767 396.973 28.1785 407.761 25.6729L492.349 5.76794C533.286 -3.76698 550.861 -2.23582 564.078 16.0684C609.872 79.4025 640.521 131.531 681.315 194.657C703.534 229.038 754.829 308.032 758.044 313.251C767.903 329.398 763.903 342.9 763.545 361.413C762.688 404.077 770.404 446.949 786.407 486.689C791.194 498.521 796.695 510.213 799.195 522.671C801.481 533.877 798.409 605.075 796.052 629.156C794.123 648.713 746.685 721.721 729.682 730.56C710.964 740.304 572.222 789.997 541.573 798.488C510.924 806.979 378.041 777.4 309.028 767.099C266.376 760.766 223.654 754.363 181.002 748.03C143.995 742.531 107.202 746.707 86.4839 710.307C62.1219 667.714 40.2605 623.936 20.8281 579.115Z" fill="url(#paint0_linear_317_889)"/>
<path d="M180.903 747.96C223.554 754.293 266.277 760.696 308.928 767.03C331.147 770.37 360.009 775.66 389.944 781.089C369.797 757.843 339.72 730.282 319.573 707.036C315.215 702.025 310.785 696.806 309.214 690.403C307.571 683.582 309.428 676.552 311.357 669.801C317.501 647.669 319.073 623.658 325.217 601.526C287.138 610.156 199.406 626.581 192.191 624.563C184.189 622.336 177.688 616.698 171.472 611.2C126.249 570.972 90.8852 530.397 56.307 481.33C52.2348 475.554 48.0911 469.568 46.5908 462.678C45.1619 456.206 46.2336 449.524 47.3052 443.052C49.8772 426.905 55.5926 382.153 60.1649 342.691L46.7337 368.651C16.6563 427.114 -17.136 486.829 9.8693 553.016C13.4414 561.786 17.085 570.485 20.8715 579.115C40.2324 623.936 62.1653 667.714 86.3843 710.168C107.031 746.638 143.896 742.462 180.903 747.96Z" fill="url(#paint1_linear_317_889)"/>
<path d="M564.601 16.8341C555.813 6.74243 538.667 8.69118 520.663 24.6987L455.936 87.7544C451.936 91.6519 449.792 97.0109 450.15 102.509L457.08 231.265C457.294 235.58 458.937 239.617 461.795 242.888C484.799 269.057 566.101 394.82 589.677 394.82C613.182 394.82 654.261 305.596 675.194 306.083C678.766 306.153 697.412 307.266 715.63 312.695C732.634 317.706 739.278 294.947 735.777 278.801C718.202 251.657 694.555 215.258 681.266 194.657C640.616 131.81 610.038 79.8202 564.601 16.8341Z" fill="url(#paint2_linear_317_889)"/>
<path d="M263.394 270.31C287.185 266.83 366.558 253.676 381.489 247.969C410.638 236.763 436.357 189.019 453.36 163.338C453.36 163.338 459.219 247.064 453.36 279.775C449.288 302.533 433.928 421.546 418.496 450.081L325.192 601.526C279.469 556.983 233.817 512.51 188.094 467.968C176.449 456.623 169.019 450.638 164.804 434.561C155.159 397.813 137.655 343.596 137.584 311.651C137.513 279.705 225.887 275.738 263.394 270.31Z" fill="url(#paint3_linear_317_889)"/>
<path d="M436.879 91.93C427.734 81.2815 425.162 66.1787 428.306 52.6767C430.949 41.4019 454.954 19.6177 462.741 12.7275L407.802 25.6728C397.014 28.2479 387.155 33.6765 379.439 41.4715L255.2 166.609C255.2 166.609 375.51 117.751 436.879 91.93Z" fill="url(#paint4_linear_317_889)"/>
<path d="M786.325 486.689C774.323 456.901 766.964 425.373 764.463 393.498C723.455 420.85 700.522 456.344 634.509 465.044C617.006 467.341 589.929 470.542 572.854 474.927C551.707 480.356 532.132 495.598 500.412 498.451C477.836 500.539 420.896 498.938 429.469 511.327C438.042 523.715 489.124 548.701 501.841 558.793C519.915 572.921 535.633 589.555 550.707 606.676C558.566 615.654 570.354 637.438 584.071 643.354C587.572 644.885 591.287 645.303 595.002 644.189C601.503 642.31 606.718 637.717 611.791 633.332C660.872 590.947 716.383 555.591 775.894 528.796C782.253 525.942 789.111 522.741 792.255 516.616C793.612 513.902 794.184 510.213 794.255 506.246C791.755 499.704 788.968 493.231 786.325 486.689Z" fill="url(#paint5_linear_317_889)"/>
<path d="M799.114 522.671C798.185 518.147 796.828 513.693 795.256 509.308C794.042 513.415 791.398 517.938 785.683 522.184C769.251 534.433 705.881 553.294 636.154 612.8C590.645 651.636 590.573 656.856 580.785 699.659C564.782 769.744 539.349 795.217 534.491 799.532C537.134 799.253 539.492 798.905 541.421 798.348C572.141 789.927 710.811 740.165 729.529 730.421C746.532 721.582 793.97 648.574 795.899 629.017C798.328 605.075 801.4 533.876 799.114 522.671Z" fill="url(#paint6_linear_317_889)"/>
<defs>
<linearGradient id="paint0_linear_317_889" x1="582.978" y1="94.0146" x2="268.485" y2="914.225" gradientUnits="userSpaceOnUse">
<stop stop-color="#9E958E"/>
<stop offset="0.4597" stop-color="#8E8884"/>
<stop offset="1" stop-color="#757575"/>
</linearGradient>
<linearGradient id="paint1_linear_317_889" x1="20.2913" y1="783.715" x2="286.112" y2="480.304" gradientUnits="userSpaceOnUse">
<stop stop-color="#37474F"/>
<stop offset="0.6122" stop-color="#42565F" stop-opacity="0.1915"/>
<stop offset="0.7573" stop-color="#455A64" stop-opacity="0"/>
</linearGradient>
<linearGradient id="paint2_linear_317_889" x1="668.217" y1="411.815" x2="498.779" y2="26.0086" gradientUnits="userSpaceOnUse">
<stop stop-color="#9E958E"/>
<stop offset="0.4415" stop-color="#AEA298"/>
<stop offset="1" stop-color="#C9B8A9"/>
</linearGradient>
<linearGradient id="paint3_linear_317_889" x1="224.899" y1="675.193" x2="292.814" y2="296.991" gradientUnits="userSpaceOnUse">
<stop offset="0.000380609" stop-color="#4C5C64"/>
<stop offset="1" stop-color="#455A64" stop-opacity="0"/>
</linearGradient>
<linearGradient id="paint4_linear_317_889" x1="255.214" y1="89.6771" x2="462.756" y2="89.6771" gradientUnits="userSpaceOnUse">
<stop offset="0.000380609" stop-color="#4C5C64"/>
<stop offset="1" stop-color="#455A64" stop-opacity="0"/>
</linearGradient>
<linearGradient id="paint5_linear_317_889" x1="580.434" y1="480.75" x2="823.976" y2="583.79" gradientUnits="userSpaceOnUse">
<stop stop-color="#9E958E"/>
<stop offset="0.25" stop-color="#AEA298"/>
<stop offset="0.5662" stop-color="#C9B8A9"/>
</linearGradient>
<linearGradient id="paint6_linear_317_889" x1="704.638" y1="806.125" x2="656.756" y2="612.25" gradientUnits="userSpaceOnUse">
<stop stop-color="#37474F"/>
<stop offset="0.8085" stop-color="#42565F" stop-opacity="0.1915"/>
<stop offset="1" stop-color="#455A64" stop-opacity="0"/>
</linearGradient>
</defs>
</svg>
